<svg xmlns="http://www.w3.org/2000/svg" version="1.1" xmlns:xlink="http://www.w3.org/1999/xlink" xmlns:svgjs="http://svgjs.dev/svgjs" width="1000" height="1000" viewBox="0 0 1000 1000"><rect width="1000" height="1000" fill="#331e6d"></rect><g transform="matrix(0.7,0,0,0.7,149.57575757575756,434.96528035182246)"><svg viewBox="0 0 396 74" data-background-color="#331e6d" preserveAspectRatio="xMidYMid meet" height="186" width="1000" xmlns="http://www.w3.org/2000/svg" xmlns:xlink="http://www.w3.org/1999/xlink"><g id="tight-bounds" transform="matrix(1,0,0,1,0.2400000000000091,-0.037102504108020185)"><svg viewBox="0 0 395.52 74.07420500821604" height="74.07420500821604" width="395.52"><g><svg viewBox="0 0 506.6061387474839 94.87875955704355" height="74.07420500821604" width="395.52"><g transform="matrix(1,0,0,1,0,13.11276633530776)"><svg viewBox="0 0 395.52 68.65322688642803" height="68.65322688642803" width="395.52"><g><svg viewBox="0 0 395.52 68.65322688642803" height="68.65322688642803" width="395.52"><g><svg viewBox="0 0 395.52 68.65322688642803" height="68.65322688642803" width="395.52"><g transform="matrix(1,0,0,1,0,0)"><svg width="395.52" viewBox="1.5499999523162842 -33.70000076293945 194.13999938964844 33.70000076293945" height="68.65322688642803" data-palette-color="#ffcf31"><path d="M11.65-14.25L11.65-14.25 11.1-12.55 21.9-12.55 21.35-14.25Q19.45-20.15 18.25-24.03 17.05-27.9 16.8-28.85L16.8-28.85 16.55-29.8Q16-27.45 11.65-14.25ZM9.7-8.25L7 0 1.55 0 13.2-33.7 19.95-33.7 31.45 0 25.95 0 23.3-8.25 9.7-8.25ZM44.65-14.25L44.65-14.25 44.1-12.55 54.9-12.55 54.35-14.25Q52.45-20.15 51.25-24.03 50.05-27.9 49.8-28.85L49.8-28.85 49.55-29.8Q49-27.45 44.65-14.25ZM42.7-8.25L40 0 34.55 0 46.2-33.7 52.95-33.7 64.45 0 58.95 0 56.3-8.25 42.7-8.25ZM88.59-4.55L88.59 0 69.65 0 69.65-33.7 74.8-33.7 74.8-4.55 88.59-4.55ZM99.14-33.7L99.14 0 94.04 0 94.04-33.7 99.14-33.7ZM120.89-12.55L120.89 0 115.74 0 115.74-12.55 104.34-33.7 110.24-33.7 112.64-28.75Q114.94-24.1 116.34-21.1 117.74-18.1 117.99-17.4L117.99-17.4 118.29-16.75Q118.74-18.25 124.09-28.75L124.09-28.75 126.54-33.7 132.44-33.7 120.89-12.55ZM145.24-14.25L145.24-14.25 144.69-12.55 155.49-12.55 154.94-14.25Q153.04-20.15 151.84-24.03 150.64-27.9 150.39-28.85L150.39-28.85 150.14-29.8Q149.59-27.45 145.24-14.25ZM143.29-8.25L140.59 0 135.14 0 146.79-33.7 153.54-33.7 165.04 0 159.54 0 156.89-8.25 143.29-8.25ZM195.69-33.7L195.69 0 190.54 0 190.54-14.75 175.39-14.75 175.39 0 170.24 0 170.24-33.7 175.39-33.7 175.39-19.2 190.54-19.2 190.54-33.7 195.69-33.7Z" opacity="1" transform="matrix(1,0,0,1,0,0)" fill="#ffcf31" class="undefined-text-0" data-fill-palette-color="primary" id="text-0"></path></svg></g></svg></g></svg></g></svg></g><g transform="matrix(1,0,0,1,411.7273791904404,0)"><svg viewBox="0 0 94.87875955704355 94.87875955704355" height="94.87875955704355" width="94.87875955704355"><g data-palette-color="#ffcf31"><rect width="25.933527612258573" height="94.87875955704355" fill="#ffcf31" stroke="transparent" data-fill-palette-color="accent" x="0" fill-opacity="1"></rect><rect width="25.933527612258573" height="94.87875955704355" fill="#ffcf31" stroke="transparent" data-fill-palette-color="accent" x="31.626253185681186" fill-opacity="0.75"></rect><rect width="25.933527612258573" height="94.87875955704355" fill="#ffcf31" stroke="transparent" data-fill-palette-color="accent" x="63.25250637136237" fill-opacity="0.5"></rect></g></svg></g></svg></g><defs></defs></svg><rect width="395.52" height="74.07420500821604" fill="none" stroke="none" visibility="hidden"></rect></g></svg></g></svg>